<svg width="114" height="68" viewBox="0 0 114 68" fill="none" xmlns="http://www.w3.org/2000/svg">
<path d="M0 68V0H20.9286V11.804C20.9286 17.8833 25.8569 22.8115 31.9361 22.8115C38.0154 22.8115 42.9436 17.8833 42.9436 11.804V6.61533C42.9436 2.96179 45.9053 0 49.5589 0H65.393V17.0466C65.393 20.1105 62.9092 22.5942 59.8453 22.5942H56.196C49.8367 22.5942 44.6816 27.7494 44.6816 34.1086C44.6816 40.4678 49.8367 45.623 56.196 45.623H59.8453C62.9092 45.623 65.393 48.1068 65.393 51.1707V68H49.6009C45.9241 68 42.9436 65.0194 42.9436 61.3427V56.0511C42.9436 49.9719 38.0154 45.0437 31.9361 45.0437C25.8569 45.0437 20.9286 49.9719 20.9286 56.0511V68H0Z" fill="url(#paint0_linear)"/>
<path d="M88.5665 68H66.9137V50.7864C66.9137 47.2148 64.0183 44.3195 60.4468 44.3195H56.7028C51.0635 44.3195 46.4919 39.7479 46.4919 34.1086C46.4919 28.4693 51.0635 23.8978 56.7028 23.8978H60.4468C64.0183 23.8978 66.9137 21.0024 66.9137 17.4309V0H88.5665H113.478V11.3437C113.478 17.5572 108.441 22.5942 102.228 22.5942H82.9903C76.6311 22.5942 71.476 27.7494 71.476 34.1086C71.476 40.4678 76.6311 45.623 82.9903 45.623H102.228C108.441 45.623 113.478 50.66 113.478 56.8736V68H88.5665Z" fill="url(#paint1_linear)"/>
<defs>
<linearGradient id="paint0_linear" x1="-24.6621" y1="24.644" x2="17.0788" y2="90.6321" gradientUnits="userSpaceOnUse">
<stop stop-color="#842EFF"/>
<stop offset="1" stop-color="#DD8FFF"/>
</linearGradient>
<linearGradient id="paint1_linear" x1="116" y1="57.0646" x2="94.5328" y2="-3.75094" gradientUnits="userSpaceOnUse">
<stop offset="0.1595" stop-color="#25DAFF"/>
<stop offset="0.9865" stop-color="#28B7FF"/>
</linearGradient>
</defs>
</svg>
