<svg width="171" height="102" viewBox="0 0 171 102" fill="none" xmlns="http://www.w3.org/2000/svg">
<path d="M0 102V0H31.393V17.7061C31.393 26.8249 38.7853 34.2173 47.9042 34.2173C57.023 34.2173 64.4153 26.8249 64.4153 17.7061V9.923C64.4153 4.44268 68.858 0 74.3383 0H98.0894V25.5698C98.0894 30.1657 94.3638 33.8914 89.7679 33.8914H84.2939C74.7551 33.8914 67.0224 41.6241 67.0224 51.1629C67.0224 60.7018 74.7551 68.4345 84.2939 68.4345H89.7679C94.3638 68.4345 98.0894 72.1602 98.0894 76.756V102H74.4013C68.8862 102 64.4153 97.5291 64.4153 92.014V84.0767C64.4153 74.9578 57.023 67.5655 47.9042 67.5655C38.7853 67.5655 31.393 74.9578 31.393 84.0767V102H0Z" fill="#2D2F4E"/>
<path d="M132.85 102H100.371V76.1796C100.371 70.8222 96.0276 66.4792 90.6703 66.4792H85.0543C76.5954 66.4792 69.738 59.6219 69.738 51.1629C69.738 42.704 76.5954 35.8466 85.0543 35.8466H90.6703C96.0276 35.8466 100.371 31.5037 100.371 26.1463V0H132.85H170.217V17.0155C170.217 26.3358 162.662 33.8914 153.341 33.8914H124.486C114.947 33.8914 107.214 41.6241 107.214 51.1629C107.214 60.7018 114.947 68.4345 124.486 68.4345H153.341C162.662 68.4345 170.217 75.9901 170.217 85.3103V102H132.85Z" fill="#2D2F4E"/>
</svg>
