<svg width="498" height="110" viewBox="0 0 498 110" fill="none" xmlns="http://www.w3.org/2000/svg">
<path d="M0 102V0H31.393V17.7061C31.393 26.8249 38.7853 34.2173 47.9042 34.2173C57.023 34.2173 64.4153 26.8249 64.4153 17.7061V9.923C64.4153 4.44268 68.858 0 74.3383 0H98.0894V25.5698C98.0894 30.1657 94.3638 33.8914 89.7679 33.8914H84.2939C74.7551 33.8914 67.0224 41.6241 67.0224 51.1629C67.0224 60.7018 74.7551 68.4345 84.2939 68.4345H89.7679C94.3638 68.4345 98.0894 72.1602 98.0894 76.756V102H74.4013C68.8862 102 64.4153 97.5291 64.4153 92.014V84.0767C64.4153 74.9578 57.023 67.5655 47.9042 67.5655C38.7853 67.5655 31.393 74.9578 31.393 84.0767V102H0Z" fill="url(#paint0_linear)"/>
<path d="M132.85 102H100.371V76.1796C100.371 70.8222 96.0276 66.4792 90.6703 66.4792H85.0543C76.5954 66.4792 69.738 59.6219 69.738 51.1629C69.738 42.704 76.5954 35.8466 85.0543 35.8466H90.6703C96.0276 35.8466 100.371 31.5037 100.371 26.1463V0H132.85H170.217V17.0155C170.217 26.3358 162.662 33.8914 153.341 33.8914H124.486C114.947 33.8914 107.214 41.6241 107.214 51.1629C107.214 60.7018 114.947 68.4345 124.486 68.4345H153.341C162.662 68.4345 170.217 75.9901 170.217 85.3103V102H132.85Z" fill="url(#paint1_linear)"/>
<path d="M211.255 48L200.39 32.8077V48H190.753V13.338H200.39V28.2845L211.157 13.338H222.269L209.535 30.1528L222.908 48H211.255Z" fill="#2D2F4E"/>
<path d="M231.295 17.8613C229.59 17.8613 228.214 17.4024 227.165 16.4847C226.149 15.5341 225.641 14.3541 225.641 12.9447C225.641 11.5025 226.149 10.3061 227.165 9.35561C228.214 8.40507 229.59 7.92979 231.295 7.92979C232.966 7.92979 234.31 8.40507 235.326 9.35561C236.375 10.3061 236.9 11.5025 236.9 12.9447C236.9 14.3541 236.375 15.5341 235.326 16.4847C234.31 17.4024 232.966 17.8613 231.295 17.8613ZM236.064 20.4179V48H226.427V20.4179H236.064Z" fill="#2D2F4E"/>
<path d="M259.595 20.1721C262.775 20.1721 265.299 21.2374 267.167 23.3679C269.035 25.4656 269.969 28.3173 269.969 31.9228V48H260.333V33.2011C260.333 31.6278 259.923 30.3986 259.104 29.5136C258.284 28.5959 257.186 28.137 255.81 28.137C254.368 28.137 253.237 28.5959 252.417 29.5136C251.598 30.3986 251.188 31.6278 251.188 33.2011V48H241.552V20.4179H251.188V24.3512C252.04 23.1057 253.188 22.106 254.63 21.3521C256.072 20.5654 257.727 20.1721 259.595 20.1721Z" fill="#2D2F4E"/>
<path d="M287.008 48.3442C284.517 48.3442 282.288 47.9345 280.321 47.115C278.387 46.2628 276.847 45.1156 275.7 43.6734C274.585 42.1984 273.962 40.5432 273.831 38.7076H283.173C283.304 39.5926 283.714 40.281 284.402 40.7726C285.09 41.2643 285.943 41.5101 286.959 41.5101C287.745 41.5101 288.368 41.3462 288.827 41.0184C289.286 40.6907 289.515 40.2646 289.515 39.7401C289.515 39.0518 289.138 38.5438 288.384 38.216C287.631 37.8882 286.385 37.5277 284.648 37.1343C282.681 36.741 281.042 36.2985 279.731 35.8069C278.42 35.3152 277.273 34.5122 276.29 33.3977C275.339 32.2833 274.864 30.7755 274.864 28.8745C274.864 27.2356 275.306 25.7606 276.191 24.4495C277.076 23.1057 278.371 22.0404 280.075 21.2538C281.813 20.4671 283.894 20.0738 286.319 20.0738C289.925 20.0738 292.76 20.9588 294.825 22.7287C296.89 24.4987 298.086 26.8259 298.414 29.7103H289.712C289.548 28.8253 289.155 28.1534 288.532 27.6945C287.942 27.2028 287.139 26.957 286.123 26.957C285.336 26.957 284.73 27.1045 284.304 27.3995C283.91 27.6945 283.714 28.1042 283.714 28.6286C283.714 29.2842 284.091 29.7922 284.844 30.1528C285.598 30.4806 286.811 30.8247 288.483 31.1853C290.482 31.6114 292.137 32.0866 293.448 32.6111C294.792 33.1355 295.956 33.9877 296.939 35.1677C297.955 36.3149 298.463 37.8882 298.463 39.8876C298.463 41.4937 297.988 42.9359 297.038 44.2142C296.12 45.4925 294.792 46.5086 293.055 47.2625C291.351 47.9836 289.335 48.3442 287.008 48.3442Z" fill="#2D2F4E"/>
<path d="M321.343 20.1721C324.49 20.1721 326.981 21.2374 328.816 23.3679C330.685 25.4656 331.619 28.3173 331.619 31.9228V48H321.982V33.2011C321.982 31.6278 321.573 30.3986 320.753 29.5136C319.934 28.5959 318.836 28.137 317.459 28.137C316.017 28.137 314.886 28.5959 314.067 29.5136C313.247 30.3986 312.838 31.6278 312.838 33.2011V48H303.201V11.6172H312.838V24.3512C313.69 23.1057 314.837 22.106 316.279 21.3521C317.754 20.5654 319.442 20.1721 321.343 20.1721Z" fill="#2D2F4E"/>
<path d="M341.774 17.8613C340.07 17.8613 338.693 17.4024 337.644 16.4847C336.628 15.5341 336.12 14.3541 336.12 12.9447C336.12 11.5025 336.628 10.3061 337.644 9.35561C338.693 8.40507 340.07 7.92979 341.774 7.92979C343.446 7.92979 344.789 8.40507 345.806 9.35561C346.854 10.3061 347.379 11.5025 347.379 12.9447C347.379 14.3541 346.854 15.5341 345.806 16.4847C344.789 17.4024 343.446 17.8613 341.774 17.8613ZM346.543 20.4179V48H336.907V20.4179H346.543Z" fill="#2D2F4E"/>
<path d="M361.667 24.2529C362.421 22.9746 363.486 21.9585 364.863 21.2046C366.24 20.4507 367.862 20.0738 369.731 20.0738C371.927 20.0738 373.91 20.6474 375.68 21.7946C377.482 22.9418 378.892 24.5806 379.908 26.7112C380.957 28.8417 381.481 31.3328 381.481 34.1844C381.481 37.036 380.957 39.5435 379.908 41.7068C378.892 43.8373 377.482 45.4762 375.68 46.6234C373.91 47.7706 371.927 48.3442 369.731 48.3442C367.862 48.3442 366.24 47.9672 364.863 47.2134C363.519 46.4595 362.454 45.4434 361.667 44.1651V61.1765H352.031V20.4179H361.667V24.2529ZM371.697 34.1844C371.697 32.3816 371.206 30.9886 370.222 30.0053C369.272 28.9892 368.092 28.4811 366.682 28.4811C365.273 28.4811 364.076 28.9892 363.093 30.0053C362.143 31.0214 361.667 32.4144 361.667 34.1844C361.667 35.9871 362.143 37.3966 363.093 38.4127C364.076 39.4288 365.273 39.9368 366.682 39.9368C368.092 39.9368 369.272 39.4288 370.222 38.4127C371.206 37.3638 371.697 35.9544 371.697 34.1844Z" fill="#2D2F4E"/>
<path d="M189.573 78.5953C189.573 75.1864 190.278 72.1545 191.687 69.4996C193.13 66.8118 195.162 64.7305 197.784 63.2555C200.406 61.7478 203.422 60.9939 206.83 60.9939C211.157 60.9939 214.795 62.1575 217.745 64.4847C220.695 66.7791 222.596 69.9093 223.449 73.8754H213.075C212.452 72.5643 211.583 71.5646 210.469 70.8762C209.387 70.1879 208.125 69.8437 206.683 69.8437C204.454 69.8437 202.668 70.6468 201.324 72.2529C200.013 73.8262 199.357 75.9403 199.357 78.5953C199.357 81.283 200.013 83.4299 201.324 85.036C202.668 86.6093 204.454 87.396 206.683 87.396C208.125 87.396 209.387 87.0518 210.469 86.3635C211.583 85.6752 212.452 84.6755 213.075 83.3644H223.449C222.596 87.3304 220.695 90.477 217.745 92.8042C214.795 95.0986 211.157 96.2458 206.83 96.2458C203.422 96.2458 200.406 95.5083 197.784 94.0334C195.162 92.5256 193.13 90.4443 191.687 87.7893C190.278 85.1016 189.573 82.0369 189.573 78.5953Z" fill="#2D2F4E"/>
<path d="M240.844 96.3442C238.091 96.3442 235.616 95.7706 233.42 94.6234C231.257 93.4762 229.552 91.8373 228.307 89.7068C227.061 87.5762 226.438 85.0688 226.438 82.1844C226.438 79.3328 227.061 76.8417 228.307 74.7112C229.585 72.5807 231.306 70.9418 233.469 69.7946C235.665 68.6474 238.14 68.0738 240.893 68.0738C243.647 68.0738 246.105 68.6474 248.268 69.7946C250.464 70.9418 252.185 72.5807 253.431 74.7112C254.709 76.8417 255.348 79.3328 255.348 82.1844C255.348 85.036 254.709 87.5435 253.431 89.7068C252.185 91.8373 250.464 93.4762 248.268 94.6234C246.072 95.7706 243.597 96.3442 240.844 96.3442ZM240.844 87.986C242.188 87.986 243.302 87.4943 244.187 86.511C245.105 85.4949 245.564 84.0527 245.564 82.1844C245.564 80.3161 245.105 78.8903 244.187 77.907C243.302 76.9236 242.204 76.432 240.893 76.432C239.582 76.432 238.484 76.9236 237.599 77.907C236.714 78.8903 236.272 80.3161 236.272 82.1844C236.272 84.0855 236.698 85.5277 237.55 86.511C238.402 87.4943 239.5 87.986 240.844 87.986Z" fill="#2D2F4E"/>
<path d="M295.307 68.1721C298.782 68.1721 301.502 69.221 303.469 71.3187C305.468 73.4165 306.468 76.2845 306.468 79.9228V96H296.831V81.2011C296.831 79.7261 296.422 78.5789 295.602 77.7595C294.783 76.94 293.668 76.5303 292.259 76.5303C290.849 76.5303 289.735 76.94 288.916 77.7595C288.096 78.5789 287.686 79.7261 287.686 81.2011V96H278.05V81.2011C278.05 79.7261 277.64 78.5789 276.821 77.7595C276.034 76.94 274.936 76.5303 273.527 76.5303C272.085 76.5303 270.954 76.94 270.134 77.7595C269.315 78.5789 268.905 79.7261 268.905 81.2011V96H259.269V68.4179H268.905V72.0562C269.757 70.8762 270.855 69.9421 272.199 69.2538C273.576 68.5327 275.149 68.1721 276.919 68.1721C278.951 68.1721 280.754 68.6146 282.327 69.4996C283.933 70.3846 285.195 71.6301 286.113 73.2362C287.096 71.7284 288.391 70.5157 289.997 69.5979C291.603 68.6474 293.373 68.1721 295.307 68.1721Z" fill="#2D2F4E"/>
<path d="M347.786 68.1721C351.26 68.1721 353.981 69.221 355.948 71.3187C357.947 73.4165 358.947 76.2845 358.947 79.9228V96H349.31V81.2011C349.31 79.7261 348.9 78.5789 348.081 77.7595C347.262 76.94 346.147 76.5303 344.738 76.5303C343.328 76.5303 342.214 76.94 341.394 77.7595C340.575 78.5789 340.165 79.7261 340.165 81.2011V96H330.529V81.2011C330.529 79.7261 330.119 78.5789 329.3 77.7595C328.513 76.94 327.415 76.5303 326.006 76.5303C324.563 76.5303 323.433 76.94 322.613 77.7595C321.794 78.5789 321.384 79.7261 321.384 81.2011V96H311.747V68.4179H321.384V72.0562C322.236 70.8762 323.334 69.9421 324.678 69.2538C326.055 68.5327 327.628 68.1721 329.398 68.1721C331.43 68.1721 333.233 68.6146 334.806 69.4996C336.412 70.3846 337.674 71.6301 338.592 73.2362C339.575 71.7284 340.87 70.5157 342.476 69.5979C344.082 68.6474 345.852 68.1721 347.786 68.1721Z" fill="#2D2F4E"/>
<path d="M392.447 68.4179V96H382.762V92.0667C381.942 93.3123 380.812 94.3284 379.369 95.115C377.927 95.8689 376.272 96.2458 374.404 96.2458C371.191 96.2458 368.651 95.197 366.783 93.0992C364.947 90.9687 364.03 88.0843 364.03 84.446V68.4179H373.617V83.2169C373.617 84.7902 374.027 86.0357 374.846 86.9535C375.698 87.8385 376.813 88.281 378.189 88.281C379.599 88.281 380.713 87.8385 381.533 86.9535C382.352 86.0357 382.762 84.7902 382.762 83.2169V68.4179H392.447Z" fill="#2D2F4E"/>
<path d="M415.976 68.1721C419.155 68.1721 421.679 69.2374 423.547 71.3679C425.416 73.4656 426.35 76.3173 426.35 79.9228V96H416.713V81.2011C416.713 79.6278 416.303 78.3986 415.484 77.5136C414.665 76.5959 413.567 76.137 412.19 76.137C410.748 76.137 409.617 76.5959 408.797 77.5136C407.978 78.3986 407.568 79.6278 407.568 81.2011V96H397.932V68.4179H407.568V72.3512C408.421 71.1057 409.568 70.106 411.01 69.3521C412.452 68.5654 414.107 68.1721 415.976 68.1721Z" fill="#2D2F4E"/>
<path d="M436.505 65.8613C434.8 65.8613 433.424 65.4024 432.375 64.4847C431.359 63.5341 430.851 62.3541 430.851 60.9447C430.851 59.5025 431.359 58.3062 432.375 57.3556C433.424 56.4051 434.8 55.9298 436.505 55.9298C438.176 55.9298 439.52 56.4051 440.536 57.3556C441.585 58.3062 442.11 59.5025 442.11 60.9447C442.11 62.3541 441.585 63.5341 440.536 64.4847C439.52 65.4024 438.176 65.8613 436.505 65.8613ZM441.274 68.4179V96H431.637V68.4179H441.274Z" fill="#2D2F4E"/>
<path d="M463.035 87.7893V96H458.856C451.809 96 448.286 92.5092 448.286 85.5277V76.432H444.893V68.4179H448.286V61.7314H457.971V68.4179H462.986V76.432H457.971V85.6752C457.971 86.429 458.135 86.9699 458.463 87.2976C458.824 87.6254 459.414 87.7893 460.233 87.7893H463.035Z" fill="#2D2F4E"/>
<path d="M497.152 68.4179L479.649 109.127H469.176L475.764 94.82L464.456 68.4179H475.175L480.976 84.0527L486.581 68.4179H497.152Z" fill="#2D2F4E"/>
<defs>
<linearGradient id="paint0_linear" x1="-36.9931" y1="36.9661" x2="25.6182" y2="135.948" gradientUnits="userSpaceOnUse">
<stop stop-color="#842EFF"/>
<stop offset="1" stop-color="#DD8FFF"/>
</linearGradient>
<linearGradient id="paint1_linear" x1="170.213" y1="149.494" x2="44.3063" y2="-52.5938" gradientUnits="userSpaceOnUse">
<stop stop-color="#25E0BC"/>
<stop offset="0.24" stop-color="#4EDBBF"/>
<stop offset="0.4865" stop-color="#32CAAC"/>
<stop offset="0.7369" stop-color="#149E83"/>
</linearGradient>
</defs>
</svg>
