<svg width="171" height="140" viewBox="0 0 171 140" fill="none" xmlns="http://www.w3.org/2000/svg">
<path d="M0 102V0H31.393V17.7061C31.393 26.8249 38.7853 34.2173 47.9042 34.2173C57.023 34.2173 64.4153 26.8249 64.4153 17.7061V9.923C64.4153 4.44268 68.858 0 74.3383 0H98.0894V25.5698C98.0894 30.1657 94.3638 33.8914 89.7679 33.8914H84.2939C74.7551 33.8914 67.0224 41.6241 67.0224 51.1629C67.0224 60.7018 74.7551 68.4345 84.2939 68.4345H89.7679C94.3638 68.4345 98.0894 72.1602 98.0894 76.756V102H74.4013C68.8862 102 64.4153 97.5291 64.4153 92.014V84.0767C64.4153 74.9578 57.023 67.5655 47.9042 67.5655C38.7853 67.5655 31.393 74.9578 31.393 84.0767V102H0Z" fill="#2D2F4E"/>
<path d="M132.85 102H100.371V76.1796C100.371 70.8222 96.0276 66.4792 90.6703 66.4792H85.0543C76.5954 66.4792 69.738 59.6219 69.738 51.1629C69.738 42.704 76.5954 35.8466 85.0543 35.8466H90.6703C96.0276 35.8466 100.371 31.5037 100.371 26.1463V0H132.85H170.217V17.0155C170.217 26.3358 162.662 33.8914 153.341 33.8914H124.486C114.947 33.8914 107.214 41.6241 107.214 51.1629C107.214 60.7018 114.947 68.4345 124.486 68.4345H153.341C162.662 68.4345 170.217 75.9901 170.217 85.3103V102H132.85Z" fill="#2D2F4E"/>
<path d="M17.9465 139L8.62689 125.969V139H0.361572V109.27H8.62689V122.09L17.8621 109.27H27.3925L16.4705 123.692L27.9408 139H17.9465Z" fill="#2D2F4E"/>
<path d="M39.2248 109.27V139H30.9595V109.27H39.2248Z" fill="#2D2F4E"/>
<path d="M71.4688 139H63.2034L52.1971 122.385V139H43.9317V109.27H52.1971L63.2034 126.096V109.27H71.4688V139Z" fill="#2D2F4E"/>
<path d="M87.3942 139.295C83.9363 139.295 81.0968 138.48 78.8759 136.849C76.6549 135.191 75.4601 132.829 75.2914 129.765H84.1049C84.1893 130.805 84.4985 131.564 85.0327 132.042C85.5668 132.52 86.2556 132.759 87.099 132.759C87.8581 132.759 88.4766 132.576 88.9545 132.211C89.4605 131.817 89.7135 131.283 89.7135 130.608C89.7135 129.737 89.3059 129.062 88.4906 128.584C87.6753 128.106 86.354 127.572 84.5266 126.982C82.5868 126.335 81.0125 125.716 79.8036 125.126C78.6228 124.508 77.5826 123.622 76.683 122.469C75.8115 121.289 75.3757 119.756 75.3757 117.873C75.3757 115.961 75.8537 114.331 76.8095 112.981C77.7654 111.604 79.0867 110.563 80.7735 109.861C82.4603 109.158 84.372 108.806 86.5086 108.806C89.9666 108.806 92.7217 109.622 94.7739 111.252C96.8543 112.855 97.9648 115.118 98.1054 118.042H89.1232C89.095 117.142 88.8139 116.467 88.2798 116.017C87.7737 115.568 87.1131 115.343 86.2978 115.343C85.6793 115.343 85.1732 115.525 84.7797 115.891C84.3861 116.256 84.1893 116.776 84.1893 117.451C84.1893 118.013 84.4001 118.505 84.8218 118.927C85.2716 119.321 85.8198 119.672 86.4665 119.981C87.1131 120.262 88.0689 120.628 89.334 121.078C91.2176 121.724 92.7638 122.371 93.9727 123.018C95.2097 123.636 96.2639 124.522 97.1355 125.674C98.0351 126.799 98.4849 128.233 98.4849 129.976C98.4849 131.747 98.0351 133.335 97.1355 134.741C96.2639 136.146 94.9848 137.257 93.298 138.072C91.6393 138.888 89.6714 139.295 87.3942 139.295Z" fill="#2D2F4E"/>
<path d="M128.937 109.27V139H120.671V127.066H110.593V139H102.327V109.27H110.593V120.445H120.671V109.27H128.937Z" fill="#2D2F4E"/>
<path d="M141.932 109.27V139H133.667V109.27H141.932Z" fill="#2D2F4E"/>
<path d="M170.127 119.18C170.127 120.979 169.706 122.624 168.862 124.114C168.047 125.576 166.796 126.757 165.109 127.656C163.451 128.528 161.412 128.964 158.995 128.964H154.904V139H146.639V109.27H158.995C161.384 109.27 163.408 109.692 165.067 110.535C166.754 111.379 168.019 112.545 168.862 114.035C169.706 115.525 170.127 117.24 170.127 119.18ZM158.193 122.385C160.527 122.385 161.693 121.317 161.693 119.18C161.693 117.015 160.527 115.933 158.193 115.933H154.904V122.385H158.193Z" fill="#2D2F4E"/>
</svg>
