<svg width="855" height="522" viewBox="0 0 855 522" fill="none" xmlns="http://www.w3.org/2000/svg">
<path fill-rule="evenodd" clip-rule="evenodd" d="M0 0H196.5V112.5C196.5 137.353 216.647 157.5 241.5 157.5H251.5C276.353 157.5 296.5 137.353 296.5 112.5V55C296.5 24.6243 321.124 0 351.5 0H503.5V152C503.5 182.928 478.428 208 447.5 208H414C384.453 208 360.5 231.953 360.5 261.5C360.5 291.047 384.453 315 414 315H447.5C478.428 315 503.5 340.072 503.5 371V521.5H351.5C321.124 521.5 296.5 496.876 296.5 466.5V408C296.5 383.147 276.353 363 251.5 363H241.5C216.647 363 196.5 383.147 196.5 408V521.5H0V0ZM26 495.5V26H170.5V112.5C170.5 151.712 202.288 183.5 241.5 183.5H251.5C290.712 183.5 322.5 151.712 322.5 112.5V55C322.5 38.9837 335.484 26 351.5 26H477.5V152C477.5 168.569 464.069 182 447.5 182H414C370.093 182 334.5 217.593 334.5 261.5C334.5 305.407 370.093 341 414 341H447.5C464.069 341 477.5 354.431 477.5 371V495.5H351.5C335.484 495.5 322.5 482.516 322.5 466.5V408C322.5 368.788 290.712 337 251.5 337H241.5C202.288 337 170.5 368.788 170.5 408V495.5H26Z" fill="url(#paint0_linear)"/>
<path fill-rule="evenodd" clip-rule="evenodd" d="M474 521.5V369C474 355.745 463.255 345 450 345H415.5C369.384 345 332 307.616 332 261.5C332 215.384 369.384 178 415.5 178H450C463.255 178 474 167.255 474 154V0H854.5V152C854.5 182.928 829.428 208 798.5 208H618C588.453 208 564.5 231.953 564.5 261.5C564.5 291.047 588.453 315 618 315H798.5C829.428 315 854.5 340.072 854.5 371V521.5H474ZM500 495.5V369C500 341.386 477.614 319 450 319H415.5C383.744 319 358 293.256 358 261.5C358 229.744 383.744 204 415.5 204H450C477.614 204 500 181.614 500 154V26H828.5V152C828.5 168.569 815.069 182 798.5 182H618C574.093 182 538.5 217.593 538.5 261.5C538.5 305.407 574.093 341 618 341H798.5C815.069 341 828.5 354.431 828.5 371V495.5H500Z" fill="url(#paint1_linear)"/>
<defs>
<linearGradient id="paint0_linear" x1="443.149" y1="525.01" x2="443.149" y2="128.621" gradientUnits="userSpaceOnUse">
<stop stop-color="#842EFF"/>
<stop offset="1" stop-color="#DD8FFF"/>
</linearGradient>
<linearGradient id="paint1_linear" x1="791.872" y1="525.01" x2="791.872" y2="128.621" gradientUnits="userSpaceOnUse">
<stop stop-color="#842EFF"/>
<stop offset="1" stop-color="#DD8FFF"/>
</linearGradient>
</defs>
</svg>
